<?xml version="1.0" encoding="UTF-8" standalone="no"?>
<!-- Created with Inkscape (http://www.inkscape.org/) -->

<svg
   xmlns:dc="http://purl.org/dc/elements/1.1/"
   xmlns:cc="http://creativecommons.org/ns#"
   xmlns:rdf="http://www.w3.org/1999/02/22-rdf-syntax-ns#"
   xmlns:svg="http://www.w3.org/2000/svg"
   xmlns="http://www.w3.org/2000/svg"
   xmlns:sodipodi="http://sodipodi.sourceforge.net/DTD/sodipodi-0.dtd"
   xmlns:inkscape="http://www.inkscape.org/namespaces/inkscape"
   width="210mm"
   height="297mm"
   viewBox="0 0 744.09448819 1052.3622047"
   id="svg2"
   version="1.1"
   inkscape:version="0.91 r13725"
   sodipodi:docname="The Moon.svg">
  <defs
     id="defs4" />
  <sodipodi:namedview
     id="base"
     pagecolor="#ffffff"
     bordercolor="#666666"
     borderopacity="1.0"
     inkscape:pageopacity="0.0"
     inkscape:pageshadow="2"
     inkscape:zoom="0.7"
     inkscape:cx="185.28943"
     inkscape:cy="577.14286"
     inkscape:document-units="px"
     inkscape:current-layer="layer1"
     showgrid="false"
     inkscape:window-width="1366"
     inkscape:window-height="705"
     inkscape:window-x="-8"
     inkscape:window-y="-8"
     inkscape:window-maximized="1" />
  <metadata
     id="metadata7">
    <rdf:RDF>
      <cc:Work
         rdf:about="">
        <dc:format>image/svg+xml</dc:format>
        <dc:type
           rdf:resource="http://purl.org/dc/dcmitype/StillImage" />
        <dc:title></dc:title>
      </cc:Work>
    </rdf:RDF>
  </metadata>
  <g
     inkscape:label="1. réteg"
     inkscape:groupmode="layer"
     id="layer1">
    <g
       id="g7210"
       style="stroke:#dbe3e2">
      <path
         inkscape:connector-curvature="0"
         id="path6166"
         d="M 363.82031,165.61328 C 234.84936,173.31009 117.01748,270.34638 86.382277,396.18002 54.123449,517.91549 105.7216,656.42139 211.05526,725.99878 c 99.1056,68.28721 238.16398,71.92717 339.58478,6.39667 103.30829,-64.03726 162.0124,-192.5943 139.4964,-312.51637 C 669.88225,300.41391 573.5698,197.82729 454.57607,172.83863 c -29.70354,-6.71311 -60.36641,-9.08098 -90.75576,-7.22535 z"
         style="opacity:1;fill:#dbe3e2;fill-opacity:1;fill-rule:evenodd;stroke:#dbe3e2;stroke-width:2.38217092;stroke-linecap:round;stroke-linejoin:round;stroke-miterlimit:4;stroke-dasharray:none;stroke-opacity:1" />
      <g
         id="g7110"
         style="stroke:#dbe3e2">
        <path
           style="fill:#93aca7;stroke:#dbe3e2"
           d="m 288.48633,733.30273 c -1.79701,4.8709 5.39563,9.41115 8.08789,4.79297 -0.88509,-2.69744 -6.11469,-4.96709 -8.08789,-4.79297 z"
           id="path6383"
           inkscape:connector-curvature="0" />
        <path
           style="fill:#93aca7;stroke:#dbe3e2"
           d="m 273.04883,723.60352 c -3.44168,2.78359 4.83634,0.0678 0.38672,-0.15625 -0.15497,-0.0296 -0.33699,-0.13532 -0.38672,0.15625 z"
           id="path6381"
           inkscape:connector-curvature="0" />
        <path
           style="fill:#93aca7;stroke:#dbe3e2"
           d="m 251.99219,715.46289 c -2.23972,2.02014 -0.30969,3.97773 1.98828,2.75586 2.67076,-0.55952 -1.46395,-2.85375 -1.98828,-2.75586 z"
           id="path6379"
           inkscape:connector-curvature="0" />
        <path
           style="fill:#93aca7;stroke:#dbe3e2"
           d="m 230.66016,704.68164 c -1.70485,1.84596 -2.17028,5.66314 1.32422,3.99219 2.61543,-0.3621 6.61631,-3.82197 1.24804,-4.06445 -0.75986,0.0566 -2.30037,-1.03958 -2.57226,0.0723 z m 36.71875,1.8418 c -4.13157,0.78323 0.2593,1.28777 0,0 z"
           id="path6377"
           inkscape:connector-curvature="0" />
        <path
           style="fill:#93aca7;stroke:#dbe3e2"
           d="m 476.75195,690.63672 c -4.03666,1.87024 -9.4992,3.5951 -12.16797,6.81836 5.97973,1.13303 13.69495,0.85677 18.28321,-3.41016 -0.94368,-1.83562 -4.17564,-4.51253 -6.11524,-3.4082 z"
           id="path6375"
           inkscape:connector-curvature="0" />
        <path
           style="fill:#93aca7;stroke:#dbe3e2"
           d="m 229.87891,689.65039 c -3.82766,2.39235 0.96048,2.80941 2.36718,1.30078 -0.66081,-0.4962 -1.60015,-1.28727 -2.36718,-1.30078 z"
           id="path6373"
           inkscape:connector-curvature="0" />
        <path
           style="fill:#93aca7;stroke:#dbe3e2"
           d="m 336.2207,681.9082 c -2.10472,0.22515 -5.59795,1.72285 -1.46289,2.33789 1.96962,0.54615 4.80725,0.3095 1.46289,-2.33789 z"
           id="path6371"
           inkscape:connector-curvature="0" />
        <path
           style="fill:#93aca7;stroke:#dbe3e2"
           d="m 497,681.48438 c -1.93261,2.03876 -5.40953,4.84834 -5.58398,7.18359 3.07131,-0.41803 8.13937,-2.0815 8.1289,-5.61524 -0.58324,-0.67404 -1.72107,-1.68688 -2.54492,-1.56835 z"
           id="path6369"
           inkscape:connector-curvature="0" />
        <path
           style="fill:#93aca7;stroke:#dbe3e2"
           d="m 198.71875,673.05469 c -5.23078,2.62833 5.66358,1.24068 1.35352,0.0879 -0.4297,0.0251 -1.01225,-0.75916 -1.35352,-0.0879 z"
           id="path6367"
           inkscape:connector-curvature="0" />
        <path
           style="fill:#93aca7;stroke:#dbe3e2"
           d="m 238.49805,669.32031 c -4.21365,8.68805 5.08689,16.12882 12.78515,17.8711 3.00408,0.52972 8.66496,2.54386 10.47071,-0.6836 -3.1563,-8.44541 -12.9615,-10.54915 -19.55664,-15.51562 -1.15369,-0.57047 -2.56361,-1.54607 -3.69922,-1.67188 z m 38.75781,7.47071 c -3.34654,0.99297 -3.19321,3.36775 0.2207,3.35156 1.5366,0.33629 5.98573,0.26436 2.70508,-1.80664 -0.86521,-0.45564 -1.94465,-2.25269 -2.92578,-1.54492 z m 32.70703,9.75781 c -2.12801,0.53082 -9.80232,2.31116 -4.08789,3.44922 5.82723,1.49067 12.05119,2.3603 18.17578,1.28515 -4.0813,-2.67125 -9.14443,-5.29174 -14.08789,-4.73437 z"
           id="path6365"
           inkscape:connector-curvature="0" />
        <path
           style="fill:#93aca7;stroke:#dbe3e2"
           d="m 476.73047,664.08203 c -2.78576,1.16477 -7.42048,1.80881 -8.75,4.68359 5.11794,3.38965 14.11438,4.25347 18.40039,-0.77148 0.55264,-2.67542 -4.7787,-2.42296 -6.46289,-3.57812 -1.0549,-0.0593 -2.13982,-1.05548 -3.1875,-0.33399 z"
           id="path6363"
           inkscape:connector-curvature="0" />
        <path
           style="fill:#93aca7;stroke:#dbe3e2"
           d="m 487.02539,652.94141 c -2.90434,1.70076 -8.95572,3.43736 -8.46484,7.4082 4.81401,3.69478 11.60587,-2.13087 9.08789,-7.67578 l -0.62305,0.26758 z"
           id="path6361"
           inkscape:connector-curvature="0" />
        <path
           style="fill:#93aca7;stroke:#dbe3e2"
           d="m 507.39453,650.59375 c -4.54433,3.33443 4.77222,0.058 1.70703,-0.43164 -0.5952,0.0204 -1.4408,-0.56038 -1.70703,0.43164 z"
           id="path6359"
           inkscape:connector-curvature="0" />
        <path
           style="fill:#93aca7;stroke:#dbe3e2"
           d="m 455.625,630.87305 c -3.23516,1.22156 -5.72374,8.71947 -0.39062,7.94336 2.68507,-1.3542 1.37798,-6.60029 0.39062,-7.94336 z"
           id="path6357"
           inkscape:connector-curvature="0" />
        <path
           style="fill:#93aca7;stroke:#dbe3e2"
           d="m 284.01367,607.25195 c -1.72121,0.72915 -4.22459,2.80253 -0.83984,2.83203 1.51662,0.40726 6.1578,0.0306 2.82031,-1.98242 -0.59925,-0.25599 -1.28933,-1.59844 -1.98047,-0.84961 z"
           id="path6355"
           inkscape:connector-curvature="0" />
        <path
           style="fill:#93aca7;stroke:#dbe3e2"
           d="m 264.89648,605.69141 c -1.74979,1.1528 -4.38322,4.69797 -0.38281,3.99218 1.73589,0.12155 6.64564,-1.31267 3.00391,-3.10742 -0.76478,-0.3028 -1.92878,-1.72643 -2.6211,-0.88476 z"
           id="path6353"
           inkscape:connector-curvature="0" />
        <path
           style="fill:#93aca7;stroke:#dbe3e2"
           d="m 304.47461,604.30664 c -3.05473,1.80446 -4.46957,7.02646 0.68359,5.95117 2.41981,0.28672 7.14789,-2.05499 3.19727,-4.28711 -1.08386,-0.52722 -2.84349,-2.77599 -3.88086,-1.66406 z"
           id="path6351"
           inkscape:connector-curvature="0" />
        <path
           style="fill:#93aca7;stroke:#dbe3e2"
           d="m 277.08594,599.24609 c -1.32198,2.47897 0.29727,3.24629 2.04297,0.97461 1.73107,-1.38806 -1.39387,-0.83494 -2.04297,-0.97461 z"
           id="path6349"
           inkscape:connector-curvature="0" />
        <path
           style="fill:#93aca7;stroke:#dbe3e2"
           d="m 507.25781,596.52734 c -2.46629,2.3325 -6.63066,5.15841 -8.47656,6.83789 5.423,-0.95107 2.19342,8.35441 -1.40039,4.01172 -1.49147,-0.96077 0.58222,-4.36955 -1.72656,-1.89648 -11.07184,8.52122 -26.00993,15.82936 -29.86524,30.4043 4.80857,5.46643 13.76068,7.08176 18.96289,1.0039 4.74769,-4.49361 9.17161,-10.18712 12.26758,-15.51367 -1.66942,-1.864 1.69238,-5.34221 3.18945,-3.71484 3.38637,-5.13113 8.52638,-8.83454 12.69922,-13 1.82423,-3.40122 -2.35941,-9.20914 -5.65039,-8.13282 z"
           id="path6347"
           inkscape:connector-curvature="0" />
        <path
           style="fill:#93aca7;stroke:#dbe3e2"
           d="m 394.00977,593.44141 c -5.13194,3.75978 -2.74106,11.17441 2.38085,13.76171 2.50715,1.51111 6.67315,4.30248 9.37696,2.67383 -2.15743,-6.3999 -7.43373,-11.33788 -11.50196,-16.66992 l -0.25585,0.23438 z m 5.74218,9.26757 c 2.25899,4.05871 -5.21857,5.25424 -5.23437,1.03711 0.0656,-2.34504 4.79139,-3.23037 5.23437,-1.03711 z"
           id="path6345"
           inkscape:connector-curvature="0" />
        <path
           style="fill:#93aca7;stroke:#dbe3e2"
           d="m 258.0918,588.78516 c -2.14123,0.0121 -6.43431,1.54974 -2.5,3.08789 1.68248,1.25079 5.6174,1.4545 3.51758,-1.79883 -0.29129,-0.42532 -0.28012,-1.62581 -1.01758,-1.28906 z"
           id="path6343"
           inkscape:connector-curvature="0" />
        <path
           style="fill:#93aca7;stroke:#dbe3e2"
           d="m 194.23242,587.76172 c -1.19948,1.61459 -5.30227,4.62328 -3.58203,6.52734 3.7805,1.27957 9.97377,-3.32983 4.83203,-6.5039 -0.38698,-0.0707 -0.91374,-1.34795 -1.25,-0.0234 z m 26.20508,5.16797 c -1.65596,1.91744 -2.6819,5.41147 0.79492,3.4082 1.78519,-0.58942 5.82982,-3.48521 1.55469,-3.72461 -0.76086,0.0217 -2.10821,-0.88487 -2.34961,0.31641 z"
           id="path6341"
           inkscape:connector-curvature="0" />
        <path
           style="fill:#93aca7;stroke:#dbe3e2"
           d="m 380.08398,585.5957 c -2.08235,2.25141 -4.3859,8.44751 0.85352,8.18164 2.98259,0.53946 9.81489,-2.6351 5.50586,-5.76757 -1.6132,-0.83711 -4.95861,-4.17877 -6.35938,-2.41407 z"
           id="path6339"
           inkscape:connector-curvature="0" />
        <path
           style="fill:#93aca7;stroke:#dbe3e2"
           d="m 277.38867,583.76172 c -2.15391,6.52682 5.47739,14.04134 11.66016,12.2539 -1.68553,-5.44827 -6.62487,-10.0609 -11.55664,-12.61523 l -0.10352,0.36133 z"
           id="path6337"
           inkscape:connector-curvature="0" />
        <path
           style="fill:#93aca7;stroke:#dbe3e2"
           d="m 513.17773,583.05078 c -2.54906,0.67035 -3.19094,2.67088 0.0781,2.27344 2.16871,0.47817 0.94452,-2.87551 -0.0781,-2.27344 z"
           id="path6335"
           inkscape:connector-curvature="0" />
        <path
           style="fill:#93aca7;stroke:#dbe3e2"
           d="m 401.98438,575.94922 c -2.01658,2.85078 -6.76244,7.10243 -4.50196,10.60351 5.94,1.16773 8.52862,-7.11173 4.99024,-11.15039 l -0.48828,0.54688 z"
           id="path6333"
           inkscape:connector-curvature="0" />
        <path
           style="fill:#93aca7;stroke:#dbe3e2"
           d="m 568.76562,572.7793 c -3.868,-0.14376 -4.43442,1.79376 -0.0508,2.26367 2.52924,1.03466 1.25994,-2.41189 0.0508,-2.26367 z"
           id="path6331"
           inkscape:connector-curvature="0" />
        <path
           style="fill:#93aca7;stroke:#dbe3e2"
           d="m 412.17578,572.2832 c -10.97509,1.55603 -12.54139,18.74232 -3.86328,23.91016 4.41902,-0.75305 5.84865,-7.0092 6.50391,-10.59961 -2.72978,-3.83631 1.15448,-10.62673 -2.64063,-13.31055 z m 18.77539,14.81446 c -2.44963,1.75549 -3.81619,5.6635 0.63281,3.99414 2.1231,-0.18367 5.33308,-2.50492 1.45899,-3.63477 -0.62669,-0.11815 -1.64611,-1.3534 -2.0918,-0.35937 z m -4.21289,11.49023 c -2.43747,0.77599 -7.97532,4.94946 -2.28711,5.4668 2.85449,1.0668 7.45357,-1.08248 4.16602,-4.32617 -0.5432,-0.4339 -0.93687,-2.27686 -1.87891,-1.14063 z"
           id="path6329"
           inkscape:connector-curvature="0" />
        <path
           style="fill:#93aca7;stroke:#dbe3e2"
           d="m 332.98828,554.50586 c -5.18041,5.17021 2.32438,13.53795 7.87695,9.95898 0.16367,-4.54838 -4.5233,-7.71358 -7.44726,-10.60937 l -0.42969,0.65039 z m 61.73633,12.26562 c -1.96773,1.75108 -4.06285,6.30649 0.50781,4.53516 1.95478,-0.28412 6.68002,-2.80352 2.58008,-4.16992 -0.89153,-0.13648 -2.53362,-1.75399 -3.08789,-0.36524 z"
           id="path6327"
           inkscape:connector-curvature="0" />
        <path
           style="fill:#93aca7;stroke:#dbe3e2"
           d="m 636.38477,551.7168 c -2.55986,1.81353 -5.76973,8.5254 0.002,7.36914 5.35717,-0.51661 3.22519,-6.3291 -0.002,-7.36914 z"
           id="path6325"
           inkscape:connector-curvature="0" />
        <path
           style="fill:#93aca7;stroke:#dbe3e2"
           d="m 609.00195,548.73828 c -2.34525,1.49957 -2.95822,4.4943 0.69141,3.52734 2.20279,0.0572 4.48242,-1.7394 1.08398,-2.9121 -0.5153,-0.11617 -1.32657,-1.17622 -1.77539,-0.61524 z m 19.80078,1.3418 c -2.13747,1.05255 -6.51829,5.78887 -1.51367,6.00195 2.77473,0.85553 7.85115,-1.35063 4.13282,-4.42969 -0.73583,-0.4289 -1.70399,-2.77709 -2.61915,-1.57226 z"
           id="path6323"
           inkscape:connector-curvature="0" />
        <path
           style="fill:#93aca7;stroke:#dbe3e2"
           d="m 242.80469,545.07812 c -1.37164,1.08377 -5.44421,5.64643 -1.03907,4.68946 3.61312,-0.28303 4.72873,-3.42687 1.03907,-4.68946 z"
           id="path6321"
           inkscape:connector-curvature="0" />
        <path
           style="fill:#93aca7;stroke:#dbe3e2"
           d="m 449.89062,543.93359 c -5.13893,2.093 -10.53896,11.03758 -3.78124,14.29102 4.72729,0.91242 10.90118,-3.40638 11.14843,-8.1582 -1.02182,-2.80539 -4.61609,-6.28964 -7.36719,-6.13282 z"
           id="path6319"
           inkscape:connector-curvature="0" />
        <path
           style="fill:#93aca7;stroke:#dbe3e2"
           d="m 237.26758,534.5 c -4.33723,3.84264 2.12013,6.59812 3.82617,2.85352 -0.34648,-1.35621 -2.92742,-3.92085 -3.82617,-2.85352 z"
           id="path6317"
           inkscape:connector-curvature="0" />
        <path
           style="fill:#93aca7;stroke:#dbe3e2"
           d="m 114.74609,531.61523 c -5.36567,0.78249 -7.05751,7.27656 -3.67187,11.29493 1.94886,2.85325 5.09266,7.45985 8.88672,6.88672 0.77604,-5.64392 -1.17372,-11.73071 -3.20508,-17.00196 -0.46514,-0.53784 -1.19785,-1.53325 -2.00977,-1.17969 z"
           id="path6315"
           inkscape:connector-curvature="0" />
        <path
           style="fill:#93aca7;stroke:#dbe3e2"
           d="m 258.74414,529.21875 c -8.21385,3.01187 -6.01835,13.87092 -1.94922,19.52344 2.23279,2.93411 5.90393,9.01306 10.23438,7.13281 3.23805,-3.98192 -0.2016,-10.12762 4.42382,-13.17969 3.18692,-2.88096 5.0604,-9.25255 -0.17968,-11.03125 -3.8948,-1.80317 -8.29251,-2.28677 -12.5293,-2.44531 z"
           id="path6313"
           inkscape:connector-curvature="0" />
        <path
           style="fill:#93aca7;stroke:#dbe3e2"
           d="m 247.95117,519.92578 c -2.52542,0.95293 -5.03281,4.07137 -0.71289,3.98438 1.88654,0.41672 7.47099,-0.0665 3.79492,-2.56446 -0.89194,-0.42756 -2.06459,-2.34962 -3.08203,-1.41992 z"
           id="path6311"
           inkscape:connector-curvature="0" />
        <path
           style="fill:#93aca7;stroke:#dbe3e2"
           d="m 261.49023,517.11133 c -1.73647,1.58063 -3.88383,6.21952 0.47461,5.08008 2.00915,0.014 7.53049,-2.36192 3.41016,-4.16211 -1.07598,-0.28258 -3.07593,-2.20801 -3.88477,-0.91797 z"
           id="path6309"
           inkscape:connector-curvature="0" />
        <path
           style="fill:#93aca7;stroke:#dbe3e2"
           d="m 119.53711,515.1543 c -1.73885,0.88025 -5.05542,4.22672 -1.07422,4.45898 1.72206,0.58944 7.93238,0.19577 4.4043,-2.56445 -0.93873,-0.55413 -2.23751,-2.58748 -3.33008,-1.89453 z"
           id="path6307"
           inkscape:connector-curvature="0" />
        <path
           style="fill:#93aca7;stroke:#dbe3e2"
           d="m 549.60352,503.61719 c -2.31876,1.40398 -7.88144,2.51508 -7.63282,5.84765 2.69168,2.3223 9.03978,3.68549 11.12696,0.16602 -0.10418,-2.33164 -1.94914,-4.57724 -3.49414,-6.01367 z m 62.17578,9.51562 c -1.18668,5.2524 5.74942,11.83531 9.88086,6.86328 -0.33196,-4.53937 -6.29545,-5.94878 -9.89063,-7.48632 l 0.01,0.62304 z"
           id="path6305"
           inkscape:connector-curvature="0" />
        <path
           style="fill:#93aca7;stroke:#dbe3e2"
           d="m 603.48828,487.0918 c -3.51329,1.52208 -5.75087,7.33842 0.0703,6.15429 4.66597,-0.0277 2.31729,-5.35684 -0.0703,-6.15429 z"
           id="path6303"
           inkscape:connector-curvature="0" />
        <path
           style="fill:#93aca7;stroke:#dbe3e2"
           d="m 306.98633,475.98828 c -2.02318,0.1301 -4.62756,1.26848 -1.08203,2.05274 2.34708,1.24642 4.15495,0.30782 1.8164,-1.84571 l -0.22265,-0.29101 -0.51172,0.084 z"
           id="path6301"
           inkscape:connector-curvature="0" />
        <path
           style="fill:#93aca7;stroke:#dbe3e2"
           d="m 659.18555,471.05664 c -1.49261,2.72614 -4.86975,6.98019 -3.90235,9.48047 3.13181,-0.98493 8.62711,-4.65271 6.54883,-8.32227 -0.70272,-0.51731 -1.85376,-1.28945 -2.64648,-1.1582 z"
           id="path6299"
           inkscape:connector-curvature="0" />
        <path
           style="fill:#93aca7;stroke:#dbe3e2"
           d="m 305.17773,468.12695 c -1.71697,0.56193 -6.90171,3.17123 -2.57226,3.91602 2.07007,0.86355 6.8157,0.13211 4.00976,-2.92383 -0.41665,-0.386 -0.68196,-1.73599 -1.4375,-0.99219 z"
           id="path6297"
           inkscape:connector-curvature="0" />
        <path
           style="fill:#93aca7;stroke:#dbe3e2"
           d="m 499.18555,457.27734 c -1.92729,0.84289 -5.89745,4.62136 -1.30469,4.54297 2.96944,0.776 4.70738,-2.23848 1.9082,-4.18554 l -0.375,-0.43946 c -0.0664,-0.0657 -0.10538,-0.17801 -0.22851,0.082 z"
           id="path6295"
           inkscape:connector-curvature="0" />
        <path
           style="fill:#93aca7;stroke:#dbe3e2"
           d="m 594.94336,451.05664 c -2.35139,1.18359 -3.89776,5.10103 0.12891,4.41211 4.10494,0.008 1.69075,-2.93926 -0.12891,-4.41211 z"
           id="path6293"
           inkscape:connector-curvature="0" />
        <path
           style="fill:#93aca7;stroke:#dbe3e2"
           d="m 439.125,446.6875 c -1.09586,1.59768 -4.34217,4.58329 -3.2168,6.07617 3.46052,0.31697 10.12037,-4.6338 4.08985,-6.75586 -0.40854,-0.34288 -0.59718,0.37972 -0.87305,0.67969 z"
           id="path6291"
           inkscape:connector-curvature="0" />
        <path
           style="fill:#93aca7;stroke:#dbe3e2"
           d="m 96.703125,441.24609 c -1.163943,1.70481 -4.139775,6.91369 -1.21875,7.82422 2.36375,-1.34186 2.252475,-7.65553 1.21875,-7.82422 z"
           id="path6289"
           inkscape:connector-curvature="0" />
        <path
           style="fill:#93aca7;stroke:#dbe3e2"
           d="m 666.62305,431.61328 c -5.41117,3.99208 0.40985,12.43849 5.17968,13.13867 -0.31655,-4.72276 -3.26317,-9.17352 -5.17968,-13.13867 z"
           id="path6287"
           inkscape:connector-curvature="0" />
        <path
           style="fill:#93aca7;stroke:#dbe3e2"
           d="m 612.35938,411.64453 c -2.20593,8.38919 9.64651,13.79264 7.41796,22.46094 -1.44273,6.10686 -9.81969,5.35478 -11.29081,11.20696 -11.92175,23.29333 -2.22087,53.20898 17.39238,68.88679 7.45546,2.13417 15.2972,-2.59795 17.29687,-10.04883 6.24118,-15.6802 3.57976,-34.52829 13.95703,-48.56055 3.56632,-8.81821 -3.04382,-18.59797 -10.84961,-22.9707 -11.24572,-7.02224 -24.82494,-11.05203 -33.92382,-20.97461 z"
           id="path6285"
           inkscape:connector-curvature="0" />
        <path
           style="fill:#93aca7;stroke:#dbe3e2"
           d="m 473.99023,401.7207 c -2.70259,0.59074 -6.55636,2.46044 -1.32617,2.56446 1.03698,0.0957 8.56585,0.78055 4.97852,-1.54102 -1.20144,-0.18638 -2.4449,-1.33143 -3.65235,-1.02344 z"
           id="path6283"
           inkscape:connector-curvature="0" />
        <path
           style="fill:#93aca7;stroke:#dbe3e2"
           d="m 665.375,395.72852 c -3.40479,6.23009 -2.28705,16.12555 3.87109,20.04296 1.75099,-5.99338 0.23625,-12.93514 -1.70703,-18.71875 -0.35746,-0.46015 -1.66904,-2.27714 -2.16406,-1.32421 z"
           id="path6281"
           inkscape:connector-curvature="0" />
        <path
           style="fill:#93aca7;stroke:#dbe3e2"
           d="m 458.17188,390.79102 c -1.21071,1.71763 -0.9658,4.36744 1.5332,2.77539 1.51318,-0.45837 3.76647,-2.44647 0.5664,-2.48633 -0.6844,-0.12625 -1.41761,-0.28362 -2.0996,-0.28906 z"
           id="path6279"
           inkscape:connector-curvature="0" />
        <path
           style="fill:#93aca7;stroke:#dbe3e2"
           d="m 508.29102,388.49609 c -1.43591,1.62129 -5.81297,7.27781 -0.86329,5.33399 2.11294,-0.79822 5.74452,-2.11524 6.00782,-4.31836 -1.43717,-0.65928 -3.71718,-1.49273 -5.14453,-1.01563 z"
           id="path6277"
           inkscape:connector-curvature="0" />
        <path
           style="fill:#93aca7;stroke:#dbe3e2"
           d="m 159.94531,365.05664 c -1.54547,0.66344 -6.53653,3.34167 -2.4375,3.52539 1.74533,0.44197 6.77213,-0.3409 3.37891,-2.81445 -0.30333,-0.0991 -0.53187,-0.81709 -0.94141,-0.71094 z"
           id="path6275"
           inkscape:connector-curvature="0" />
        <path
           style="fill:#93aca7;stroke:#dbe3e2"
           d="m 551.53516,362.5625 c -4.24967,4.55807 -1.77895,13.9443 5.3457,12.11523 4.99367,-1.86643 -0.099,-7.74562 -2.50781,-9.93359 -0.82716,-0.57045 -2.07514,-2.35719 -2.83789,-2.18164 z"
           id="path6273"
           inkscape:connector-curvature="0" />
        <path
           style="fill:#93aca7;stroke:#dbe3e2"
           d="m 625.30469,355.74805 c -1.92859,-0.0814 -7.53921,0.93409 -3.73242,3.33789 1.50902,1.06475 5.04068,3.56063 6.4375,1.75 -0.2618,-1.63829 -0.74033,-5.20976 -2.70508,-5.08789 z"
           id="path6271"
           inkscape:connector-curvature="0" />
        <path
           style="fill:#93aca7;stroke:#dbe3e2"
           d="m 557.06641,350.20898 c -2.30118,2.31221 -3.62468,8.47882 1.45703,7.55664 3.54071,0.35364 6.63007,-3.84502 2.36328,-5.81445 -1.04545,-0.46267 -2.92042,-2.64293 -3.82031,-1.74219 z"
           id="path6269"
           inkscape:connector-curvature="0" />
        <path
           style="fill:#93aca7;stroke:#dbe3e2"
           d="m 162.66406,347.94336 c -2.28365,2.51964 -7.76221,7.59772 -3.84179,10.88672 3.24544,1.92101 12.1232,1.76388 11.6289,-3.47656 -1.42407,-3.38339 -4.87076,-5.52007 -7.78711,-7.41016 z"
           id="path6267"
           inkscape:connector-curvature="0" />
        <path
           style="fill:#93aca7;stroke:#dbe3e2"
           d="m 229.37109,346.44531 c -2.49212,3.42684 -7.8606,9.52697 -3.49804,13.4043 4.52077,2.23084 13.45727,1.34542 14.6914,-4.41602 -1.42599,-4.70319 -7.0657,-7.35529 -11.19336,-8.98828 z m 28.53321,11.18164 c 7.60495,4.3496 1.80182,-6.80994 0,0 z m 10.23242,-0.92773 c -4.01353,0.91314 -4.80215,2.70818 -0.5332,3.42578 1.89067,0.48219 3.11286,-3.89254 0.5332,-3.42578 z m -5.06055,4.20898 c 0.27365,2.02132 2.852,3.84719 4.02344,4.48438 -1.38818,-1.49314 -3.46376,-2.46504 -4.02344,-4.48438 z"
           id="path6265"
           inkscape:connector-curvature="0" />
        <path
           style="fill:#93aca7;stroke:#dbe3e2"
           d="m 476.14062,345.9375 c -5.32746,4.31898 -5.24232,14.70016 0.4961,18.23633 2.04785,-5.47205 0.75605,-11.72898 0.38867,-17.42188 -0.17633,-0.25075 -0.4932,-1.38897 -0.88477,-0.81445 z m 49.60547,6.05469 c -3.42644,2.49164 1.07625,3.39046 2.63282,1.77734 -0.55132,-0.71264 -1.8684,-2.28287 -2.63282,-1.77734 z"
           id="path6263"
           inkscape:connector-curvature="0" />
        <path
           style="fill:#93aca7;stroke:#dbe3e2"
           d="m 383.95508,343.80078 c -2.99643,3.27791 -5.48264,10.22893 0.1582,12.23047 5.44087,1.82631 14.51877,2.4505 17.89453,-3.10156 -2.18343,-6.23155 -9.86677,-7.34887 -15.57422,-8.38672 -0.82867,-0.19035 -1.69043,-0.52537 -2.47851,-0.74219 z"
           id="path6261"
           inkscape:connector-curvature="0" />
        <path
           style="fill:#93aca7;stroke:#dbe3e2"
           d="m 305.01562,344.84375 c -4.18092,3.22829 -1.48274,10.6791 3.87891,8.73437 2.81329,-2.7869 -1.64705,-6.99906 -3.39453,-9.36328 l -0.48438,0.62891 z m 22.41211,3.02539 c -3.20618,1.72425 -9.31451,6.51383 -5.26171,10.45117 3.74602,3.02651 11.22556,5.93492 15.15625,2.08985 -0.37523,-5.26779 -6.29154,-9.78252 -9.89454,-12.54102 z"
           id="path6259"
           inkscape:connector-curvature="0" />
        <path
           style="fill:#93aca7;stroke:#dbe3e2"
           d="m 616.25,336.61914 c -5.4064,2.2477 -0.55589,8.76208 3.08398,5.61328 0.26565,-1.7532 -1.57961,-6.04278 -3.08398,-5.61328 z"
           id="path6257"
           inkscape:connector-curvature="0" />
        <path
           style="fill:#93aca7;stroke:#dbe3e2"
           d="m 418.24609,334.81641 c -1.65099,1.17819 -3.08021,3.30531 0.2461,2.13476 4.29177,-0.44446 2.32148,-2.532 -0.2461,-2.13476 z"
           id="path6255"
           inkscape:connector-curvature="0" />
        <path
           style="fill:#93aca7;stroke:#dbe3e2"
           d="m 429.68945,332.11133 c -1.53582,2.51696 -1.01479,9.20832 3.20508,6.57226 3.61055,-1.98438 -1.64641,-7.59919 -3.20508,-6.57226 z"
           id="path6253"
           inkscape:connector-curvature="0" />
        <path
           style="fill:#93aca7;stroke:#dbe3e2"
           d="m 621.49609,331.93555 c 1.41789,16.65294 -7.6792,33.97701 -0.0156,49.92968 3.89262,7.91975 13.49856,14.98134 22.30469,10.16797 10.53086,-6.95393 10.89895,-21.99135 8.93164,-33.18945 -1.82599,-10.85246 -9.1494,-22.12217 -20.93123,-23.41325 -3.57736,-1.04478 -7.24395,-2.1128 -10.35002,-4.24495 l 0.0605,0.75 z"
           id="path6251"
           inkscape:connector-curvature="0" />
        <path
           style="fill:#93aca7;stroke:#dbe3e2"
           d="m 184.72656,322.07617 c -1.94505,1.54731 -6.06381,3.54983 -6.13281,5.84766 3.44595,0.66343 8.86281,0.30222 10.69141,-2.88477 -0.93144,-1.30341 -3.04005,-3.11528 -4.5586,-2.96289 z"
           id="path6249"
           inkscape:connector-curvature="0" />
        <path
           style="fill:#93aca7;stroke:#dbe3e2"
           d="m 479.83594,313.82227 c -2.89304,2.67252 0.85163,5.92856 3.27539,3.54687 -0.0958,-1.53586 -2.18288,-3.05787 -3.27539,-3.54687 z"
           id="path6247"
           inkscape:connector-curvature="0" />
        <path
           style="fill:#93aca7;stroke:#dbe3e2"
           d="m 396.31445,308.30664 c -5.6283,4.18247 1.29482,9.75991 6.04102,9.63477 3.92085,0.93016 8.42264,-2.11053 7.33203,-6.46094 -4.17122,-0.55336 -10.42404,0.93355 -12.96875,-3.52735 l -0.4043,0.35352 z"
           id="path6245"
           inkscape:connector-curvature="0" />
        <path
           style="fill:#93aca7;stroke:#dbe3e2"
           d="m 437.20703,305.98242 c -2.21242,0.51869 -4.94049,2.20787 -0.87891,2.38477 2.30537,0.70226 5.28971,-0.21246 1.9336,-2.26953 -0.3119,-0.25708 -0.56015,-0.72534 -1.05469,-0.11524 z m 45.46875,2.22852 c -2.31597,1.34249 -1.70283,3.06889 1.04102,2.26367 3.21401,-0.23722 -0.21704,-1.7223 -1.04102,-2.26367 z"
           id="path6243"
           inkscape:connector-curvature="0" />
        <path
           style="fill:#93aca7;stroke:#dbe3e2"
           d="m 522.57617,293.55859 c -2.20166,0.99816 -3.80067,3.73116 -0.19922,3.45118 2.05294,0.40407 5.51758,-0.75533 1.97266,-2.58008 -0.51946,-0.19175 -1.22917,-1.37483 -1.77344,-0.8711 z"
           id="path6241"
           inkscape:connector-curvature="0" />
        <path
           style="fill:#93aca7;stroke:#dbe3e2"
           d="m 524.25391,283.36719 c -1.37528,1.47928 -1.71744,3.68005 0.80468,2.58984 1.81622,-0.2249 5.37429,-2.38834 1.36329,-2.58789 -0.60242,0.0942 -1.86379,-0.81383 -2.16797,-0.002 z"
           id="path6239"
           inkscape:connector-curvature="0" />
        <path
           style="fill:#93aca7;stroke:#dbe3e2"
           d="m 467.96289,270.49219 c -4.05469,3.06691 -5.23465,10.12664 0.63672,12.17773 3.32498,1.57449 10.77351,3.86536 12.4668,-0.78711 -0.80844,-5.15577 -5.08443,-9.43683 -10.26172,-10.05859 -1.0307,-0.0855 -2.09349,-1.67458 -2.8418,-1.33203 z m 52.60547,1.10742 c -3.29603,0.70228 -7.2129,2.532 -10.3457,0.42383 -4.60782,3.59942 -5.88119,11.61026 0.53125,14.34179 4.41106,3.367 14.48306,2.57414 13.32617,-4.68554 -0.70042,-3.40674 -1.61206,-6.84867 -2.63281,-10.04492 -0.27882,-0.1049 -0.59061,-0.0542 -0.87891,-0.0352 z m -27.96875,15.38867 c -2.98474,8.97772 -12.45374,14.77276 -21.80859,13.06836 -11.95564,-0.82571 -23.55747,-8.62517 -35.60352,-5.01953 -7.90383,3.88917 -9.05892,13.92397 -13.50781,20.70312 -5.66068,10.53309 -8.7526,24.36363 -1.1875,34.81836 4.12944,5.04691 0.55154,12.09936 -0.15625,17.91211 -1.25119,7.90667 -6.27118,17.48314 -0.66992,24.75586 6.87384,6.04831 16.24937,1.69235 24.04882,4.27735 6.7414,2.19209 9.93719,9.85835 16.37891,12.14062 5.05593,-2.75757 5.81616,-9.02923 6.91406,-14.13867 4.12395,-9.94311 19.48375,-9.02288 25.49219,-1.46484 3.83771,5.76545 -3.31572,10.94832 -8.31445,12.24804 -6.8092,1.26156 -8.23428,8.97419 -5.04493,14.18555 5.19397,11.3087 14.40382,22.16549 12.6211,35.4043 1.62728,14.69256 16.89348,21.30953 29.07617,25.2539 4.14185,1.43021 8.36011,2.71891 12.25391,4.76563 -2.0825,7.84718 -2.2694,19.71459 6.47461,23.46094 9.18514,0.58961 14.24167,-9.68765 15.47656,-17.52149 3.06882,-11.03034 2.55371,-24.40511 11.08594,-33.07812 5.85222,-4.98569 13.91147,-0.78602 19.19336,2.60937 13.52745,-2.37417 17.6965,-17.79442 16.92578,-29.4043 -0.30373,-7.81513 -1.71048,-15.67967 -4.87696,-22.86328 3.20505,-4.0641 5.63341,-11.26052 -0.44726,-13.99804 -8.23356,-4.44572 -19.97388,-8.10221 -21.35352,-18.98243 -0.12296,-4.60163 0.33949,-9.29311 -3.35156,-12.84765 -3.6534,-4.42527 -7.7442,2.36723 -9.83789,5.03515 -3.35625,4.34961 -6.03136,9.74299 -11.0918,12.40039 -14.35493,-5.01384 -20.91055,-20.05341 -24.55279,-33.63969 -3.59916,-12.81652 -8.4015,-26.90217 -20.70111,-33.89741 -8.21042,-6.66261 -6.5462,-19.05326 -13.30078,-26.51758 l -0.13477,0.33398 z m -38.75977,94.95508 c 5.7166,0.47681 0.57912,8.86105 -3.03711,5.45703 -1.97023,-2.6343 -0.33241,-5.84033 3.03711,-5.45703 z"
           id="path6237"
           inkscape:connector-curvature="0" />
        <path
           style="fill:#93aca7;stroke:#dbe3e2"
           d="m 163.60938,263.875 c -7.73503,3.04087 -12.75827,11.32488 -14.59376,18.86719 4.17856,-4.70733 6.38139,-11.05153 12.52344,-13.72852 1.46442,-0.89589 4.88593,-4.2149 2.07032,-5.13867 z"
           id="path6235"
           inkscape:connector-curvature="0" />
        <path
           style="fill:#93aca7;stroke:#dbe3e2"
           d="m 224.67188,252.05664 c -7.12983,0.38127 -11.30026,7.7552 -16.08985,12.21484 -6.58421,6.65828 -12.20507,16.66132 -22.28711,18.19727 0.8129,3.53072 1.64693,11.30159 -3.60351,11.60352 -4.56888,-2.68695 1.9035,-8.97969 1.42578,-11.69532 -7.45293,-1.12476 -11.14344,-9.65741 -14.57227,-14.41406 -24.0751,20.18676 -37.01338,49.85134 -55.63797,74.63781 -6.07521,14.1729 -15.580788,27.79889 -16.410856,43.60242 -0.138584,4.2427 2.732996,4.56713 4.785156,1.18165 1.86636,-1.87138 6.68341,-6.75589 8.12109,-2.04493 -2.78868,8.54147 -8.92875,15.86685 -11.669918,24.56055 -2.622347,6.67451 -4.299694,14.80915 0.06636,21.07392 8.927209,28.56458 19.750459,56.85954 25.050829,86.30889 12.17479,16.78169 14.71475,39.20272 29.2207,54.42969 4.1306,4.2763 10.7494,5.35531 16.10742,2.86914 10.32373,8.05079 25.57845,14.40558 38.05274,7.60938 5.73438,-3.58318 7.5211,-10.49245 8.75781,-16.68946 7.98841,9.60469 16.64432,22.60976 12.4043,35.66602 -2.36398,6.35495 -8.9551,9.89824 -15.31641,11.02344 -5.27072,12.93326 0.008,27.74617 10.59766,36.33593 11.59209,9.89541 25.91226,16.56949 40.18945,20.75 4.88774,-1.84793 2.25846,-9.36093 6.82422,-10.96289 5.19,1.2965 5.51606,8.72427 10.07031,11.27344 11.7274,10.62828 28.51519,5.8704 42.38477,3.82031 4.06053,-0.5499 8.16977,-0.9406 12.26953,-0.67578 -4.89722,-4.66764 -13.32767,-8.54974 -13.54297,-16.2207 1.83559,-5.94659 9.88751,-6.87701 15.19727,-6.18555 7.24128,1.2931 9.99661,9.55651 16.07421,12.34961 4.38745,-0.62561 4.74964,-7.83839 8.875,-6.93945 4.46068,-1.81223 7.53468,-9.81141 13.125,-7.53711 1.09304,0.49738 1.27254,3.14722 2.16211,0.59766 13.84276,-18.22476 35.42846,-27.83722 53.92702,-40.22417 6.41231,-6.81249 0.62654,4.95312 2.25853,8.56596 0.66369,10.4726 18.18231,12.56877 19.90039,1.66211 1.58571,-4.38523 -4.17994,-11.29761 3.29883,-10.57031 8.57728,-1.19086 16.51907,-9.01794 13.98242,-18.25586 -1.93955,-8.64751 -7.36139,-18.67553 -16.62109,-20.70899 -6.37022,2.38151 -4.44912,-0.38168 -1.92578,-4.39453 1.00377,-4.56169 -6.30579,-4.63774 -9.2734,-5.38579 -5.16903,-1.44508 -11.77052,0.55867 -16.43559,-2.48921 -1.67558,-4.25831 4.99473,-4.62656 7.56882,-5.69401 5.41469,-0.014 2.88798,-6.62865 1.57962,-9.83724 -6.9262,-12.30027 -24.29879,-14.46152 -36.55273,-9.90039 -6.85925,2.37051 -11.50226,8.17997 -13.27525,15.00673 -2.39181,6.38515 -3.29658,-0.41309 -3.56655,-3.79579 -3.90484,-9.30211 -15.02427,-12.05981 -22.9003,-16.99015 -4.19861,-1.9338 -11.12636,-6.76319 -7.09579,-11.93758 4.33143,-4.78314 10.94772,-6.19725 16.92968,-6.60352 5.79788,-1.12891 3.82482,-8.27761 0.92921,-11.45151 -5.44456,-6.7678 3.10364,-1.25022 6.45165,0.34409 11.90916,5.03917 27.39775,5.96448 38.07227,-2.25 5.87494,-5.74211 0.32837,-14.17079 -4.32617,-18.68555 -5.21527,-1.80777 -11.54355,-2.18812 -16.66211,-5.11328 -8.62211,-3.8021 -18.35059,-12.90794 -14.31836,-23.22266 3.33204,-7.10292 10.59893,-13.77708 18.96875,-12.08984 16.04336,1.10456 30.66829,12.11827 47.00976,9.0625 7.75823,-1.98088 11.49624,-9.91799 14.15235,-16.62891 2.97721,-2.20704 8.21074,-8.06652 2.46484,-10.54687 -12.00035,-6.4055 -28.57513,-6.1714 -37.12695,-18.11133 -1.06221,-1.84378 -1.21554,-4.24489 -3.95508,-3.19726 -7.34513,0.64535 -15.60079,-4.07425 -22.21484,0.29687 -4.06402,4.5699 -0.44755,12.28036 -6.36133,15.68164 -10.28857,6.75283 -23.44793,2.57935 -34.75,1.84375 -4.16527,0.12318 -11.19326,-2.33956 -13.53907,2.25391 -0.19254,3.59687 1.17847,7.30496 4.66016,8.61328 3.92558,4.96189 -3.34024,9.92508 -4.87891,14.24805 -2.16164,2.93394 -0.23274,6.57323 -0.0563,9.21476 -5.63388,11.12813 -20.22502,8.59445 -29.50811,14.31063 -8.42088,6.58074 -3.29469,18.33177 -0.0918,26.38086 1.38798,5.48171 6.59946,11.70408 3.6875,17.41796 -4.70236,3.29294 -9.99959,-2.02565 -14.07031,-4.22851 -5.22035,-5.5673 -12.26363,-1.37386 -18.46094,-1.16016 -5.2481,-0.69499 -3.3036,-7.77896 -3.49414,-10.44336 -13.60834,0.73879 -24.93457,-10.40691 -38.44726,-9.43359 -4.91877,2.82414 -6.71066,2.61528 -4.04883,-2.97461 4.25792,-8.13014 15.25126,-8.69732 21.2832,-14.41602 -4.55605,-3.52368 -10.92432,-4.36697 -14.4082,-9.44921 -10.43425,-11.57606 -6.03486,-29.86928 3.92578,-40.26758 7.10001,-8.23224 19.61182,-14.03165 29.99805,-8.46875 -0.54314,5.44889 4.53995,9.71434 9.84765,7.77734 8.26606,-1.27977 14.99085,-6.87731 22.61329,-9.62695 6.81323,-0.46312 14.14718,-0.55152 20.96484,1.41015 0.69905,-4.80443 5.06369,-11.26616 10.52344,-8.00586 4.82892,2.45711 10.29202,9.89677 15.84375,4.67969 4.56002,-5.64259 12.35336,-9.82521 12.34765,-18.15625 1.05616,-11.09372 -11.72046,-18.07077 -21.38672,-14.34961 -3.3905,-0.46337 -5.25893,-5.56099 -6.53125,-8.89257 -2.97397,-9.60655 6.15441,-16.93368 13.37322,-21.35232 5.48841,-4.26465 15.57224,-8.00126 14.47835,-16.44065 -0.51243,-2.14947 -1.8766,-4.24707 -3.22852,-5.78907 1.60256,5.39704 -9.29681,4.41269 -6.3457,-0.80859 0.23957,-2.08526 4.5678,-2.05763 2.08398,-3.72461 -7.40532,-7.9465 -7.55658,-20.8706 -0.46875,-29.05664 2.24223,-3.26341 6.02089,-5.88471 8.38282,-8.41992 -11.14957,-14.96384 -31.26013,-18.21639 -48.7793,-18.92578 -7.18081,0.14242 -15.01794,-0.23351 -21.73242,2.26953 -15.14187,13.85613 -38.04264,12.6886 -53.72852,25.44922 -6.40517,5.28245 -7.34513,14.13571 -7.875,21.50781 -8.03311,9.07372 -17.05861,19.19974 -29.39258,21.87891 -8.95458,1.56542 -13.89533,-9.19347 -12.5349,-16.50125 5.46751,-14.54894 8.93529,-31.56112 21.34154,-42.0554 1.94799,-1.72489 5.3139,-1.76513 4.75782,-5.0664 0.36961,-3.48021 3.49948,-6.93851 2.47656,-10.22852 -0.73891,-0.29929 -1.56082,-0.2961 -2.3457,-0.28906 z m 101.25195,8.92383 c 3.36566,0.68344 6.09635,6.12543 1.64258,7.38672 -3.8827,1.82968 -8.60923,-3.03468 -4.88868,-6.23438 1.03318,-0.83164 1.89773,-2.76557 3.2461,-1.15234 z m 130.97656,9.25 c -2.42249,1.72124 -1.24214,4.40922 1.52149,3.60156 4.09102,-0.0312 0.69624,-3.30248 -1.13086,-4.06641 l -0.39063,0.46485 z m -64.7832,25.72656 c -2.31129,2.4616 -7.61348,9.37234 -1.85742,10.63477 5.06645,1.17819 9.25752,-4.9415 4.85937,-8.72071 -0.8196,-0.60006 -2.08721,-3.57491 -3.00195,-1.91406 z m 13.96679,29.78516 c -1.52375,1.145 -5.10963,5.0442 -0.76562,3.88672 1.73925,-0.10976 7.19232,-2.0602 3.08398,-3.65625 -0.71538,-0.15458 -1.77838,-1.4802 -2.31836,-0.23047 z m -220.5996,7.2207 c 8.55599,16.89357 20.83464,34.55281 18.21874,54.4668 -0.49073,4.26094 -2.46196,8.33994 -4.09374,12.08008 9.20962,20.98368 26.64824,38.78102 29.70117,62.20312 1.30944,10.0822 -4.22745,20.0652 -12.86328,25.16406 -7.7118,-5.66659 -18.89554,-6.4577 -24.91993,-14.30859 -2.75864,-5.37053 3.04112,-10.01562 7.08399,-12.5293 0.61465,-19.58517 -1.21733,-40.23749 -11.71485,-57.33984 -2.01909,-4.40551 -7.36746,-0.38891 -11.16015,-1.47461 -7.46562,0.417 -15.54742,-5.59571 -14,-13.67773 1.68196,-10.68399 11.06819,-17.76865 14.91406,-27.58204 1.85878,-4.01931 6.01145,-11.89686 -0.33594,-13.83007 -9.18634,-0.8022 -3.03642,-2.7084 1.71094,-5.34961 4.78157,-2.48927 3.84937,-8.22823 3.78906,-12.67188 1.22331,1.61654 2.44662,3.23307 3.66993,4.84961 z m -50.33985,5.66992 c 3.14934,2.89092 1.0955,8.84039 -3.54101,7.90235 -4.36069,-0.17371 -4.11591,-5.86665 -0.75977,-7.3711 1.55216,-0.76728 3.4212,-3.4738 4.30078,-0.53125 z m 83.10547,2.61133 c 3.7465,1.26178 6.24286,7.72398 1.00977,8.74609 -4.71946,1.28105 -7.13445,-4.80403 -4.00782,-7.89453 1.0589,-1.57488 1.27584,-2.62959 2.99805,-0.85156 z m -5.14062,3.08203 c 1.76058,3.81509 -4.30301,6.42751 -4.99219,1.88867 -1.05069,-2.9614 5.77244,-6.10566 4.99219,-1.88867 z m 160.78906,-0.80664 c -1.71813,2.0258 -3.32468,6.85735 0.8789,4.16211 1.96548,-0.67244 5.03654,-3.86523 1.09961,-4.37305 -0.6413,-0.0285 -1.81255,-1.01318 -1.97851,0.21094 z m -258.79102,13.61524 c 4.94148,0.83692 12.59462,5.6037 8.60742,11.3125 -3.14582,4.85513 -13.19214,5.23763 -13.40039,-1.92188 0.0893,-3.40607 1.45314,-8.57375 4.13681,-9.58922 l 0.65616,0.1986 z m 76.36719,7.28515 c -1.98945,0.64298 -6.29778,3.82723 -1.71094,3.92969 3.45578,0.63897 4.27375,-1.99098 1.71094,-3.92969 z m 105.96094,14.95703 c 3.05849,2.15186 -0.30451,7.90478 -3.25,4.61524 -1.35569,-2.02836 0.37498,-7.40985 1.51311,-6.58409 0.57896,0.65629 1.15792,1.31257 1.73689,1.96885 z m -45.5,-0.93164 c 6.1669,2.96169 11.69934,10.8838 6.95312,17.41016 -2.79214,5.06461 -12.4721,8.27858 -15.0957,1.53125 -1.7455,-7.21489 3.1259,-13.99926 6.40234,-20.00977 0.58008,0.35612 1.16016,0.71224 1.74024,1.06836 z m 37.08203,10.12305 c 4.78854,-0.36336 2.74512,8.7054 -1.61133,5.50976 -3.00533,-1.67879 -2.10699,-5.77999 1.61133,-5.50976 z m -168.51367,7.92187 c 4.50824,2.40176 1.92966,9.88863 -3.16602,8.38477 -4.51683,-1.93543 -0.67189,-7.5881 1.58203,-9.72266 0.528,0.44597 1.05599,0.89193 1.58399,1.33789 z m 177.76953,1.61133 c 4.26158,6.91656 -8.45239,5.60325 -3.26367,-0.39844 1.97803,-2.37356 1.85335,-2.77883 3.26367,0.39844 z m 176.50195,25.97461 c -2.59371,2.03931 -1.31666,4.30493 1.58008,2.72071 2.99274,-0.88315 -0.45567,-2.10644 -1.58008,-2.72071 z m -238.55664,0.75586 c 5.12685,-1.07383 4.99159,10.08037 -0.74805,9.04688 -4.22886,0.0235 -7.93589,-6.6408 -2.88867,-8.48633 1.15315,-0.44753 2.41052,-0.54487 3.63672,-0.56055 z m 174.39453,31.5293 c -1.27194,0.94043 -4.87336,4.78232 -0.9414,4.33984 3.7096,-0.0908 3.93884,-2.32005 0.9414,-4.33984 z m -110.92578,7.98633 c -7.28352,4.49188 -3.42727,14.58776 2.07031,18.99804 1.39313,1.45883 5.59803,4.26647 3.41992,0.0684 -1.97238,-4.74717 -5.86858,-9.37198 -3.69726,-14.70898 0.2292,-1.6427 1.04724,-4.86249 -1.79297,-4.35742 z m -165.09375,5.13086 c 5.19495,-0.69696 2.21657,4.64177 0.19922,6.8125 -5.18735,3.29814 -6.71079,-6.94439 -0.19922,-6.8125 z m 178.95313,0.13867 c 4.76115,0.26635 1.55391,7.66805 -1.69532,4.14062 -1.5054,-1.49508 -0.76133,-4.54678 1.69532,-4.14062 z m -76.74805,16.04101 c 4.47788,0.87181 2.5968,7.39707 -1.53125,6.27344 -3.9895,-0.66228 -1.19938,-8.09395 1.53125,-6.27344 z m 135.89844,-0.10937 c 3.90618,-0.63673 4.73419,5.98376 0.40429,5.04687 -3.72579,0.22939 -6.44376,-5.03452 -0.40429,-5.04687 z m -170.07422,1.34961 c 3.27856,1.62638 0.77262,6.52416 -2.42578,4.40234 -3.76783,-1.5471 -0.35663,-6.50618 2.42578,-4.40234 z m 19.75,3.57617 c 1.05609,4.84893 -7.54849,9.04081 -8.78907,3.30859 0.6992,-3.9903 5.79949,-4.6962 8.76954,-6.28906 0.007,0.99349 0.013,1.98698 0.0195,2.98047 z m 40.5,10.28516 c 5.37527,0.0671 2.69171,9.21063 -1.78516,6.23046 -1.98417,-2.33249 -3.63512,-6.9386 1.78516,-6.23046 z m 57.66601,8.09765 c 5.5531,2.9626 8.49096,11.14294 3.19727,15.79102 -3.75775,4.01258 -12.77447,7.02161 -15.75781,0.72461 -1.1606,-6.22104 3.46488,-12.58748 8.27539,-15.95703 1.35996,0.0448 3.1861,-2.16403 4.28515,-0.5586 z m 252.35547,9.39844 c -7.44509,12.3224 -12.72014,28.37355 -6.92383,42.35352 3.63912,7.91429 13.74839,10.35366 21.49219,8.5625 9.44837,-7.57575 4.70696,-20.55714 -0.0865,-29.31892 -3.26618,-6.78698 -7.21691,-13.49409 -8.39202,-21.04437 -1.60094,-0.60893 -4.99866,-2.42815 -6.08985,-0.55273 z m -244.75586,17.39648 c 2.09215,3.00418 3.15365,10.00723 -2.18359,9.94532 -5.37686,-0.42265 -6.04019,-7.97726 -1.54492,-10.19922 1.87359,-0.95297 2.90142,-3.28124 3.72851,0.2539 z m 74.61328,13.64649 c 3.83519,-0.0266 3.43326,6.02628 -0.43554,4.85742 -2.17519,-0.84013 -2.35823,-4.83704 0.43554,-4.85742 z m -5.83984,0.73828 c 4.63277,0.18473 4.31399,6.80786 -0.0137,7.10156 -5.09181,0.89321 -3.39155,-8.28712 0.0137,-7.10156 z m 10.61914,3.09766 c 3.869,-0.52561 4.26037,5.41586 0.25195,5.27929 -3.52275,0.44771 -3.34622,-5.92932 -0.25195,-5.27929 z m 3.83008,7.13085 c 2.33287,3.73044 -4.76544,5.35279 -4.69727,1.13282 -0.11084,-2.16217 4.46522,-3.59643 4.69727,-1.13282 z m 85.77929,6.43165 c -3.74403,1.12997 -5.4614,6.15648 -0.17382,5.63867 3.70322,0.71156 3.64215,-3.34542 1.19922,-5.06641 -0.35706,0.0641 -0.54894,-1.34648 -1.0254,-0.57226 z m -11.67773,5.52539 c -3.43253,1.57574 -7.543,8.19611 -1.74023,9.39648 6.31502,1.43911 4.09322,-7.21801 1.74023,-9.39648 z m -55.05469,0.28906 c 4.78137,-0.40178 9.57423,0.94233 11.26563,5.86523 2.06521,4.36612 -3.80134,6.20578 -6.98828,4.56055 -4.36136,-0.19362 -14.92932,-7.0394 -7.06641,-10.17578 0.91533,-0.19631 1.85535,-0.24542 2.78906,-0.25 z m -135.86328,2.99805 c 3.51415,2.83931 6.56858,10.25666 0.83203,12.41992 -4.83097,1.89019 -9.34984,-4.02754 -6.55468,-8.33008 1.25941,-1.81217 3.82938,-8.01946 5.72265,-4.08984 z m 156.64063,4.51757 c -0.40931,3.1861 -3.10272,9.68324 -7.13477,6.70704 -3.54328,-4.83638 2.87477,-9.825 7.53726,-9.92936 1.13602,-0.53506 -0.56916,2.65348 -0.40249,3.22232 z m -206.61719,6.74024 c 2.95736,3.57411 -3.72978,6.61389 -4.97461,2.5 -0.9778,-2.5676 4.26585,-5.02464 4.97461,-2.5 z m 198.96484,2.05078 c 5.25087,0.21756 0.0689,7.95434 -2.39648,3.58984 -0.55723,-1.57735 0.35914,-4.00984 2.39648,-3.58984 z m -176.77929,13.75 c 3.67429,3.35584 8.75784,11.07324 2.58984,14.51562 -5.43666,2.75004 -15.0372,-2.21253 -11.64453,-8.91796 1.79745,-2.94172 5.74691,-6.6012 8.62819,-6.05881 l 0.4265,0.46115 z m 207.67578,14.51953 c -1.5847,0.96321 -5.57713,4.77749 -1.27735,4.18164 3.15824,0.012 4.07104,-2.57838 1.27735,-4.18164 z m -51.72657,5.26172 c -2.7582,0.87144 -5.69722,5.44535 -0.67187,4.55469 2.75331,0.28024 2.57412,-5.32607 0.67187,-4.55469 z m -13.31835,9.91992 c -4.81332,1.16368 -7.48299,8.12969 -1.66016,9.87695 4.04012,2.31587 5.96214,-2.84669 4.08594,-5.91796 -0.42513,-1.16939 -1.3164,-3.98504 -2.42578,-3.95899 z m -124.84375,0.66602 c 4.35927,-0.80909 5.04648,7.63003 0.25586,5.45117 -2.42157,-0.91694 -3.92927,-5.13648 -0.25586,-5.45117 z M 273.82422,642 c 5.69296,0.31875 -0.27458,8.7555 -2.49219,3.41602 -0.61825,-1.67044 0.60655,-3.67055 2.49219,-3.41602 z m 45.23047,2.81641 c 3.28227,0.24884 5.04079,5.55522 0.95117,5.92968 -3.57148,0.12413 -4.22099,-4.38675 -3.7793,-7.04492 0.94271,0.37175 1.88542,0.74349 2.82813,1.11524 z m -85.33399,2.83984 c 3.62901,0.0433 7.21049,5.97194 2.16016,6.80273 -4.09783,0.0529 -5.15723,-4.97624 -5.72461,-8.06836 1.18815,0.42188 2.3763,0.84376 3.56445,1.26563 z m 191.16407,-0.2793 c -1.62864,1.80284 -5.64463,4.44789 -4.82422,6.98047 4.12,1.17668 8.32533,-4.18572 4.82422,-6.98047 z m -144.53125,0.98047 c 2.99091,2.26652 4.05736,8.41409 -0.75586,9.06055 -4.44242,1.49818 -9.73421,-4.35166 -5.0918,-7.60547 1.56341,-0.90222 4.74666,-3.70458 5.84766,-1.45508 z m 156.91992,10.80078 c -1.77446,0.30989 -6.7105,2.08202 -2.58203,2.83594 2.39528,0.76634 4.67995,-0.54605 2.58203,-2.83594 z"
           id="path6233"
           inkscape:connector-curvature="0" />
        <path
           style="fill:#93aca7;stroke:#dbe3e2"
           d="m 337.13867,243.72266 c -2.3707,1.46166 -7.33317,3.34309 -7.62695,5.66211 4.36419,0.83517 10.40173,0.75329 13.59375,-2.48047 -1.32725,-1.53142 -3.97542,-3.87272 -5.9668,-3.18164 z"
           id="path6231"
           inkscape:connector-curvature="0" />
        <path
           style="fill:#93aca7;stroke:#dbe3e2"
           d="m 564.00977,240.96289 c -1.43263,3.68079 4.63991,5.33342 5.74609,2.46289 -1.19733,-1.33936 -4.68597,-3.37373 -5.74609,-2.46289 z"
           id="path6229"
           inkscape:connector-curvature="0" />
        <path
           style="fill:#93aca7;stroke:#dbe3e2"
           d="m 256.58398,238.83984 c -1.84911,0.18096 -5.90075,1.93224 -2.13867,2.81836 2.72011,1.02579 3.81098,-0.37392 2.13867,-2.81836 z"
           id="path6227"
           inkscape:connector-curvature="0" />
        <path
           style="fill:#93aca7;stroke:#dbe3e2"
           d="m 317.07227,227.22266 c -3.20764,1.66248 -5.19918,7.54388 -0.0215,7.69336 3.34056,1.15804 6.43636,-2.23077 3.14258,-4.90625 -0.87956,-0.7883 -2.02219,-3.13555 -3.12109,-2.78711 z m 60.32421,8.88672 c -5.58833,0.40796 -1.88036,2.00323 2.04493,1.62695 -0.60842,-0.51536 -1.27777,-1.45182 -2.04493,-1.62695 z"
           id="path6225"
           inkscape:connector-curvature="0" />
        <path
           style="fill:#93aca7;stroke:#dbe3e2"
           d="m 338.05078,223.07031 c -1.30121,1.1205 -3.9625,5.04238 -0.36133,3.77344 2.03625,-0.54813 4.57076,-2.14617 0.36133,-3.77344 z"
           id="path6223"
           inkscape:connector-curvature="0" />
        <path
           style="fill:#93aca7;stroke:#dbe3e2"
           d="m 348.75781,217.14258 c -2.99881,1.9722 -7.09517,7.91856 -1.13867,9.10742 5.20979,1.23788 12.84623,2.06366 16.67578,-2.30078 -2.62351,-5.22912 -10.35688,-7.6186 -15.53711,-6.80664 z m 30.80274,9.96289 c -2.2975,1.28301 -5.37526,6.13784 -0.7461,6.31641 2.61768,0.87256 6.81667,-1.41955 3.60352,-4.12891 -0.78424,-0.5304 -1.89608,-2.88688 -2.85742,-2.1875 z"
           id="path6221"
           inkscape:connector-curvature="0" />
        <path
           style="fill:#93aca7;stroke:#dbe3e2"
           d="m 451.4082,214.01172 c -3.06274,2.20045 -9.84249,5.92235 -6.76562,10.38476 6.70595,4.6675 16.95999,5.7536 24.15625,1.60352 2.22709,-3.88931 -3.43441,-7.33675 -6.01953,-9.51953 -3.50477,-1.94492 -7.55934,-2.30854 -11.3711,-2.46875 z"
           id="path6219"
           inkscape:connector-curvature="0" />
        <path
           style="fill:#93aca7;stroke:#dbe3e2"
           d="m 512.64648,195.37305 c 1.00819,4.03038 8.16941,8.60104 10.91602,4.32422 -2.06625,-3.07481 -8.51192,-4.63802 -10.91602,-4.32422 z"
           id="path6213"
           inkscape:connector-curvature="0" />
        <path
           style="fill:#93aca7;stroke:#dbe3e2"
           d="m 99.767578,583.16016 c -0.506677,4.07596 2.821182,9.36809 4.656252,13.51367 1.83804,3.53208 4.11808,7.40556 6.17578,10.39648 -4.83112,-6.45578 -5.43094,-14.80959 -8.62891,-22.04297 -0.4958,-0.79566 -1.12054,-1.92093 -2.203122,-1.86718 z m 73.001952,1.8164 c -5.70304,7.36262 5.68088,16.47326 12.27149,11.91797 1.16048,-6.68308 -6.01348,-11.51684 -11.91211,-12.50586 l -0.35938,0.58789 z m -38.4668,12.1211 c -3.60654,3.16344 1.9504,3.60565 3.42969,1.82031 -0.64519,-0.68006 -2.67389,-2.87265 -3.42969,-1.82031 z"
           id="path6205"
           inkscape:connector-curvature="0" />
        <path
           style="fill:#93aca7;stroke:#dbe3e2"
           d="m 78.714844,470.72656 c -1.699076,6.61916 -0.814444,14.01743 1.279297,20.24219 -0.256261,-6.6231 -0.815523,-13.70101 -1.279297,-20.24219 z"
           id="path6203"
           inkscape:connector-curvature="0" />
        <path
           style="fill:#93aca7;stroke:#dbe3e2"
           d="m 79.587891,443.46094 c -0.892789,2.38182 -0.268883,2.95554 0.191406,0.41211 0.02776,-0.1917 -0.05806,-1.34174 -0.191406,-0.41211 z"
           id="path6201"
           inkscape:connector-curvature="0" />
        <path
           style="fill:#93aca7;stroke:#dbe3e2"
           d="m 83.208984,423.20312 c -2.926704,1.00684 -2.179224,5.90196 0.09961,2.38672 0.183813,-0.52403 0.588506,-2.9462 -0.09961,-2.38672 z"
           id="path6199"
           inkscape:connector-curvature="0" />
        <path
           style="fill:#93aca7;stroke:#dbe3e2"
           d="m 87.394531,398.72461 c -2.321653,1.50353 -3.387316,8.56761 0.839844,6.58398 1.659938,-1.54417 0.422181,-6.95635 -0.839844,-6.58398 z"
           id="path6195"
           inkscape:connector-curvature="0" />
        <path
           style="fill:#93aca7;stroke:#dbe3e2"
           d="m 115.36133,327.99219 c -7.89587,15.05057 -15.29451,30.5047 -20.126955,46.84179 6.740715,-16.20451 14.564305,-32.04099 20.939455,-48.33593 l -0.47773,0.87851 -0.33477,0.61563 z"
           id="path6193"
           inkscape:connector-curvature="0" />
        <path
           style="fill:#93aca7;stroke:#dbe3e2"
           d="m 140.94141,288.51562 c -5.13209,2.22517 -9.51342,8.62305 -8.19727,13.92579 3.61665,-3.9239 5.59511,-9.46325 8.19727,-13.92579 z"
           id="path6191"
           inkscape:connector-curvature="0" />
        <path
           style="fill:#93aca7;stroke:#dbe3e2"
           d="m 148.19336,277.95312 c -1.55563,0.90337 -3.53032,3.35636 -0.48828,1.51954 0.57234,-0.13847 1.70195,-2.61851 0.48828,-1.51954 z"
           id="path6189"
           inkscape:connector-curvature="0" />
        <path
           style="fill:#93aca7;stroke:#dbe3e2"
           d="m 188.38477,238.27148 c -7.97423,1.8244 -12.03251,10.85044 -12.30469,18.33204 6.54234,-7.09375 2.36132,1.75871 2.4375,6.21289 0.43719,2.33678 3.92455,-1.26828 5.01367,-1.79493 3.80642,-3.33359 8.45731,-7.67835 9.48242,-12.35937 -3.72764,-0.73406 -8.3548,5.75599 -11.01953,1.45312 0.36568,-4.39546 5.32866,-8.27791 6.39063,-11.84375 z"
           id="path6185"
           inkscape:connector-curvature="0" />
        <path
           style="fill:#93aca7;stroke:#dbe3e2"
           d="m 201.3418,228.5293 c -2.23261,1.74209 -6.98949,4.82988 -6.91797,6.67773 3.51838,-0.66897 7.54956,-3.12881 7.74023,-7.06641 l -0.82226,0.38868 z m 61.9375,9.76953 c -2.83663,0.85237 -5.68584,4.1381 -1.05274,4.16992 1.74681,0.42423 6.51746,-0.11844 3.50391,-2.70898 -0.69996,-0.42832 -1.47401,-2.47846 -2.45117,-1.46094 z m -14.91992,0.81445 c -2.64092,0.28346 -9.15785,3.72856 -5.79883,6.63867 3.58477,0.24305 5.30426,-4.04146 6.49609,-6.80664 l -0.69726,0.16797 z"
           id="path6183"
           inkscape:connector-curvature="0" />
        <path
           style="fill:#93aca7;stroke:#dbe3e2"
           d="m 302.72461,220.56445 c -1.61713,3.23266 -5.06813,7.23348 -3.70703,10.92578 3.94792,0.65512 11.19565,-4.04746 8.38672,-8.42578 -1.21912,-1.26641 -3.12757,-2.30675 -4.67969,-2.5 z m -91.41406,0.31055 c -2.68395,1.07726 -2.54221,2.05072 0.15039,0.44141 0.34951,-0.16883 0.87249,-1.36957 -0.15039,-0.44141 z"
           id="path6181"
           inkscape:connector-curvature="0" />
        <path
           style="fill:#93aca7;stroke:#dbe3e2"
           d="m 245.46484,200.4668 c -2.47932,0.64713 -3.66156,1.83103 -0.18359,0.82617 0.66803,0.0319 1.00572,-0.99537 0.18359,-0.82617 z"
           id="path6179"
           inkscape:connector-curvature="0" />
        <path
           style="fill:#93aca7;stroke:#dbe3e2"
           d="m 250.31445,198.22656 c -7.13773,2.39162 4.37878,-0.719 0,0 z"
           id="path6177"
           inkscape:connector-curvature="0" />
        <path
           style="fill:#93aca7;stroke:#dbe3e2"
           d="m 270.70898,189.02539 c 0.42847,-0.0567 0.6104,-0.22086 0,0 z"
           id="path6175"
           inkscape:connector-curvature="0" />
      </g>
    </g>
  </g>
</svg>
